<svg xmlns="http://www.w3.org/2000/svg" viewBox="0 0 64 64"><defs><linearGradient id="a" x1="50%" x2="50%" y1="0%" y2="100%"><stop stop-color="#F5D21F" offset="0%"/><stop stop-color="#F8BF0B" offset="100%"/></linearGradient><linearGradient id="b" x1="50%" x2="50%" y1="0%" y2="100%"><stop stop-color="#16B95C" offset="0%"/><stop stop-color="#0DAC51" offset="100%"/></linearGradient></defs><g fill="none"><path fill="url(#a)" d="M3.5 33.511c0 15.746 12.765 28.511 28.511 28.511 15.746 0 28.511-12.765 28.511-28.511 0-15.746-12.765-28.511-28.511-28.511-15.745 0-28.511 12.765-28.511 28.511"/><path fill="url(#b)" d="M33.447 6.464c-8.35 1.116-11.162 6.07-11.162 6.07-.67.937 0 2.097 0 2.097l15.182 21.976c-2.142-.668-4.541-.835-6.989-.381-7.122 1.326-11.962 7.428-10.807 13.631 1.153 6.202 7.863 10.156 14.986 8.831 7.124-1.326 11.963-7.428 10.809-13.631-.171-.916-.465-1.782-.861-2.591l.005.003-.019-.034c-.147-.296-.307-.582-.481-.862l-13.786-24.707c17.412-.178 12.188-14.868 12.188-14.868-2.454 3.929-9.062 4.464-9.062 4.464"/></g></svg>